<svg width="198" height="42" viewBox="0 0 198 42" fill="none" xmlns="http://www.w3.org/2000/svg">
<path d="M13.8464 28.7099C14.8627 28.7099 15.7096 28.4118 16.3871 27.7728C17.0222 27.1765 17.361 26.2394 17.361 24.9615V4.81339C17.361 4.643 17.4033 4.51521 17.5727 4.34483C17.6574 4.25964 17.8267 4.17444 17.9961 4.17444H20.8332C21.0025 4.17444 21.1719 4.25964 21.2989 4.34483C21.3836 4.51521 21.4683 4.643 21.4683 4.81339V24.9615C21.4683 27.4746 20.7485 29.3489 19.3511 30.5842C17.9114 31.8195 16.0907 32.4584 13.8464 32.4584H7.62189C5.33532 32.4584 3.51454 31.8195 2.11719 30.5842C0.677501 29.3489 0 27.4746 0 24.9615V4.81339C0 4.643 0.0423437 4.51521 0.169375 4.34483C0.254063 4.25964 0.423438 4.17444 0.635157 4.17444H3.47219C3.64157 4.17444 3.7686 4.25964 3.93798 4.34483C4.02266 4.51521 4.10735 4.643 4.10735 4.81339V24.9615C4.10735 26.2394 4.40376 27.1765 5.08126 27.7728C5.71642 28.4118 6.56329 28.7099 7.62189 28.7099H13.8464Z" fill="url(#paint0_linear_247_24)"/>
<path d="M30.1488 31.7769C30.1488 32.2028 29.9371 32.4584 29.5136 32.4584H26.6766C26.5072 32.4584 26.3379 32.3732 26.2532 32.288C26.0838 32.1176 26.0414 31.9473 26.0414 31.7769V12.4807C26.0414 11.9696 26.2532 11.501 26.6766 11.0325C27.0577 10.6065 27.5235 10.3935 28.1163 10.3935H38.8716C41.3276 10.3935 43.1907 11.0751 44.461 12.3529C45.6466 13.716 46.2818 15.4199 46.2818 17.4645V31.7769C46.2818 32.2028 46.0701 32.4584 45.6466 32.4584H42.8096C42.6402 32.4584 42.4708 32.3732 42.3862 32.288C42.2168 32.1176 42.1744 31.9473 42.1744 31.7769V17.4645C42.1744 17.0385 42.0898 16.6552 42.0051 16.2292C41.878 15.8458 41.7087 15.5051 41.4546 15.1643C41.2005 14.8661 40.8618 14.6105 40.4383 14.3976C40.0149 14.2272 39.4644 14.142 38.8716 14.142H30.1488V31.7769Z" fill="url(#paint1_linear_247_24)"/>
<path d="M70.6791 25.8134C70.6791 27.9006 70.0439 29.5193 68.8583 30.712C67.588 31.8621 65.7249 32.4584 63.2689 32.4584H57.8913C55.3506 32.4584 53.4875 31.8621 52.3019 30.712C51.0316 29.5193 50.4388 27.9006 50.4388 25.8134V17.0811C50.4388 14.9939 51.0316 13.3327 52.3019 12.14C53.4875 10.9899 55.3506 10.3935 57.8913 10.3935H66.5718V0.681543C66.5718 0.511157 66.6141 0.340771 66.7835 0.170386C66.8682 0.0851941 67.0375 0 67.2069 0H70.0439C70.4674 0 70.6791 0.25558 70.6791 0.681543V25.8134ZM66.5718 14.142H57.8913C56.621 14.142 55.7317 14.4402 55.266 14.9513C54.7578 15.5477 54.5461 16.2292 54.5461 17.0811V25.8134C54.5461 26.6653 54.7578 27.3469 55.266 27.858C55.7317 28.4544 56.621 28.7099 57.8913 28.7099H63.2689C64.4969 28.7099 65.3438 28.4544 65.8519 27.858C66.3177 27.3469 66.5718 26.6653 66.5718 25.8134V14.142Z" fill="url(#paint2_linear_247_24)"/>
<path d="M88.0473 10.3935C89.0213 10.3935 89.9528 10.5639 90.7997 10.8195C91.6466 11.1176 92.3664 11.5436 93.0439 12.0974C93.6367 12.6937 94.1449 13.3753 94.526 14.1846C94.8647 15.0365 95.0764 15.9736 95.0764 17.0811C95.0764 21.7241 92.4511 24.0669 87.2428 24.1521H78.9434V25.8134C78.9434 26.6653 79.1551 27.3469 79.6633 27.858C80.1291 28.4544 81.0183 28.7099 82.2886 28.7099H93.171C93.5944 28.7099 93.8484 28.9655 93.8484 29.3915V31.7769C93.8484 32.2028 93.5944 32.4584 93.171 32.4584H82.2886C79.748 32.4584 77.8848 31.8621 76.6992 30.712C75.4289 29.5193 74.8361 27.9006 74.8361 25.8134V17.0811C74.8361 14.9939 75.4289 13.3327 76.6992 12.14C77.8848 10.9899 79.748 10.3935 82.2886 10.3935H88.0473ZM82.2886 14.142C81.0183 14.142 80.1291 14.4402 79.6633 14.9513C79.1551 15.5477 78.9434 16.2292 78.9434 17.0811V20.4037H87.2428C88.5978 20.4037 89.5294 20.1481 90.1222 19.5943C90.6727 19.0832 90.9691 18.2312 90.9691 17.0811C90.9691 16.5274 90.8844 16.0588 90.715 15.6329C90.5456 15.2921 90.3339 14.9939 90.0798 14.7383C89.7834 14.5254 89.487 14.355 89.1483 14.2698C88.7672 14.1846 88.3861 14.142 88.0473 14.142H82.2886Z" fill="url(#paint3_linear_247_24)"/>
<path d="M111.99 10.3935C112.583 10.3935 113.048 10.6065 113.472 10.9473C113.853 11.3732 114.065 11.8418 114.065 12.3529V15.9736C114.065 16.1866 113.98 16.357 113.895 16.4422C113.726 16.6126 113.599 16.6552 113.429 16.6552H110.592C110.127 16.6552 109.915 16.4422 109.915 15.9736V14.142H106.231C105.596 14.142 105.088 14.2272 104.664 14.3976C104.241 14.6105 103.902 14.8661 103.648 15.1643C103.352 15.5051 103.14 15.8458 103.055 16.2292C102.928 16.6552 102.886 17.0385 102.886 17.4645V31.7769C102.886 32.2028 102.674 32.4584 102.251 32.4584H99.4137C99.2443 32.4584 99.0749 32.3732 98.9902 32.288C98.8209 32.1176 98.7785 31.9473 98.7785 31.7769V17.4645C98.7785 15.4199 99.3713 13.716 100.642 12.3529C101.827 11.0751 103.69 10.3935 106.231 10.3935H111.99Z" fill="url(#paint4_linear_247_24)"/>
<path d="M144.666 7.92292H143.438C143.015 7.92292 142.633 8.00811 142.379 8.1785C142.041 8.34889 141.744 8.64706 141.448 9.07302L135.181 19.9777V30.5416C135.181 30.9675 134.927 31.2231 134.503 31.2231H131.666C131.497 31.2231 131.328 31.1379 131.243 31.0527C131.074 30.8824 131.031 30.712 131.031 30.5416V19.9777L124.722 9.07302C124.426 8.64706 124.129 8.34889 123.833 8.1785C123.494 8.00811 123.155 7.92292 122.774 7.92292H121.504V31.7769C121.504 31.9473 121.419 32.1176 121.335 32.288C121.165 32.3732 121.038 32.4584 120.869 32.4584H118.032C117.608 32.4584 117.397 32.2028 117.397 31.7769V6.04868C117.397 5.53753 117.608 5.06897 118.032 4.72819C118.413 4.38743 118.879 4.21704 119.429 4.17444H122.774C124.045 4.17444 125.103 4.38743 125.992 4.72819C126.839 5.15416 127.517 5.75051 128.11 6.55984L133.106 15.3773L138.06 6.55984C138.611 5.75051 139.331 5.15416 140.22 4.72819C141.067 4.38743 142.125 4.17444 143.438 4.17444H146.741C147.249 4.21704 147.757 4.38743 148.181 4.72819C148.604 5.06897 148.816 5.53753 148.816 6.04868V31.7769C148.816 32.2028 148.562 32.4584 148.138 32.4584H145.343C144.878 32.4584 144.666 32.2028 144.666 31.7769V7.92292Z" fill="url(#paint5_linear_247_24)"/>
<path d="M159.968 32.4584C158.952 32.4584 158.063 32.288 157.216 32.0325C156.369 31.7343 155.607 31.3083 155.014 30.7972C154.336 30.2434 153.828 29.5193 153.489 28.6673C153.108 27.858 152.939 26.9209 152.939 25.8134C152.939 23.5132 153.574 21.7667 154.929 20.574C156.242 19.4239 158.19 18.8276 160.815 18.7424H169.495V17.0811C169.495 16.2292 169.241 15.5477 168.776 14.9513C168.267 14.4402 167.421 14.142 166.193 14.142H155.268C155.056 14.142 154.887 14.0994 154.802 13.929C154.633 13.8438 154.59 13.6734 154.59 13.503V11.0751C154.59 10.6491 154.802 10.3935 155.268 10.3935H166.193C168.648 10.3935 170.512 10.9899 171.782 12.14C172.968 13.3327 173.603 14.9939 173.603 17.0811V25.8134C173.603 27.9006 172.968 29.5193 171.782 30.712C170.512 31.8621 168.648 32.4584 166.193 32.4584H159.968ZM166.193 28.7099C167.421 28.7099 168.267 28.4544 168.776 27.858C169.241 27.3469 169.495 26.6653 169.495 25.8134V22.4057L160.815 22.4483C159.46 22.4483 158.486 22.7465 157.935 23.2576C157.343 23.8114 157.089 24.6633 157.089 25.8134C157.089 26.4097 157.173 26.8783 157.343 27.2191C157.512 27.6024 157.724 27.9006 158.02 28.1136C158.274 28.3692 158.571 28.497 158.909 28.5822C159.248 28.6673 159.587 28.7099 159.968 28.7099H166.193Z" fill="url(#paint6_linear_247_24)"/>
<path d="M177.76 17.0811C177.76 14.9939 178.352 13.3327 179.623 12.14C180.808 10.9899 182.672 10.3935 185.212 10.3935H190.59C193.046 10.3935 194.909 10.9899 196.179 12.14C197.365 13.3327 198 14.9939 198 17.0811V25.8134C198 27.9006 197.365 29.5193 196.179 30.712C194.909 31.8621 193.046 32.4584 190.59 32.4584H181.867V41.3611C181.867 41.787 181.655 42 181.232 42H178.395C178.225 42 178.056 41.9148 177.971 41.8296C177.802 41.7018 177.76 41.5314 177.76 41.3611V17.0811ZM181.867 28.7099H190.59C191.818 28.7099 192.665 28.4544 193.173 27.858C193.639 27.3469 193.893 26.6653 193.893 25.8134V17.0811C193.893 16.2292 193.639 15.5477 193.173 14.9513C192.665 14.4402 191.818 14.142 190.59 14.142H185.212C183.942 14.142 183.053 14.4402 182.587 14.9513C182.079 15.5477 181.867 16.2292 181.867 17.0811V28.7099Z" fill="url(#paint7_linear_247_24)"/>
<defs>
<linearGradient id="paint0_linear_247_24" x1="-2.49827" y1="7.65314" x2="200.795" y2="35.0193" gradientUnits="userSpaceOnUse">
<stop stop-color="#790699"/>
<stop offset="0.173077" stop-color="#320699"/>
<stop offset="0.620192" stop-color="#3D64AC"/>
<stop offset="0.969649" stop-color="#28BFB2"/>
</linearGradient>
<linearGradient id="paint1_linear_247_24" x1="-2.49827" y1="7.65314" x2="200.795" y2="35.0193" gradientUnits="userSpaceOnUse">
<stop stop-color="#790699"/>
<stop offset="0.173077" stop-color="#320699"/>
<stop offset="0.620192" stop-color="#3D64AC"/>
<stop offset="0.969649" stop-color="#28BFB2"/>
</linearGradient>
<linearGradient id="paint2_linear_247_24" x1="-2.49827" y1="7.65314" x2="200.795" y2="35.0193" gradientUnits="userSpaceOnUse">
<stop stop-color="#790699"/>
<stop offset="0.173077" stop-color="#320699"/>
<stop offset="0.620192" stop-color="#3D64AC"/>
<stop offset="0.969649" stop-color="#28BFB2"/>
</linearGradient>
<linearGradient id="paint3_linear_247_24" x1="-2.49827" y1="7.65314" x2="200.795" y2="35.0193" gradientUnits="userSpaceOnUse">
<stop stop-color="#790699"/>
<stop offset="0.173077" stop-color="#320699"/>
<stop offset="0.620192" stop-color="#3D64AC"/>
<stop offset="0.969649" stop-color="#28BFB2"/>
</linearGradient>
<linearGradient id="paint4_linear_247_24" x1="-2.49827" y1="7.65314" x2="200.795" y2="35.0193" gradientUnits="userSpaceOnUse">
<stop stop-color="#790699"/>
<stop offset="0.173077" stop-color="#320699"/>
<stop offset="0.620192" stop-color="#3D64AC"/>
<stop offset="0.969649" stop-color="#28BFB2"/>
</linearGradient>
<linearGradient id="paint5_linear_247_24" x1="-2.49827" y1="7.65314" x2="200.795" y2="35.0193" gradientUnits="userSpaceOnUse">
<stop stop-color="#790699"/>
<stop offset="0.173077" stop-color="#320699"/>
<stop offset="0.620192" stop-color="#3D64AC"/>
<stop offset="0.969649" stop-color="#28BFB2"/>
</linearGradient>
<linearGradient id="paint6_linear_247_24" x1="-2.49827" y1="7.65314" x2="200.795" y2="35.0193" gradientUnits="userSpaceOnUse">
<stop stop-color="#790699"/>
<stop offset="0.173077" stop-color="#320699"/>
<stop offset="0.620192" stop-color="#3D64AC"/>
<stop offset="0.969649" stop-color="#28BFB2"/>
</linearGradient>
<linearGradient id="paint7_linear_247_24" x1="-2.49827" y1="7.65314" x2="200.795" y2="35.0193" gradientUnits="userSpaceOnUse">
<stop stop-color="#790699"/>
<stop offset="0.173077" stop-color="#320699"/>
<stop offset="0.620192" stop-color="#3D64AC"/>
<stop offset="0.969649" stop-color="#28BFB2"/>
</linearGradient>
</defs>
</svg>
