<svg width="370" height="370" viewBox="0 0 370 370" fill="none" xmlns="http://www.w3.org/2000/svg">
<rect width="370" height="370" rx="60" fill="white"/>
<path fill-rule="evenodd" clip-rule="evenodd" d="M279.693 134.962C293.25 106.487 263.524 76.7503 235.038 90.3067L104.846 152.304C78.1573 165.012 79.8099 203.548 107.492 213.922L138.078 225.39C139.569 225.95 140.924 226.822 142.051 227.949C143.178 229.076 144.05 230.43 144.61 231.922L156.078 262.519C166.463 290.19 204.988 291.843 217.696 265.154L279.693 134.962Z" fill="black"/>
<path fill-rule="evenodd" clip-rule="evenodd" d="M279.693 134.962C293.25 106.487 263.524 76.7503 235.038 90.3067L104.846 152.304C78.1573 165.012 79.8099 203.548 107.492 213.922L138.078 225.39C139.569 225.95 140.924 226.822 142.051 227.949C143.178 229.076 144.05 230.43 144.61 231.922L156.078 262.519C166.463 290.19 204.988 291.843 217.696 265.154L279.693 134.962Z" fill="url(#paint0_linear_303_88)"/>
<defs>
<linearGradient id="paint0_linear_303_88" x1="83.2583" y1="122.884" x2="289.363" y2="128.769" gradientUnits="userSpaceOnUse">
<stop stop-color="#790699"/>
<stop offset="0.173077" stop-color="#320699"/>
<stop offset="0.620192" stop-color="#3D64AC"/>
<stop offset="0.969649" stop-color="#28BFB2"/>
</linearGradient>
</defs>
</svg>
