<svg width="781" height="54" viewBox="0 0 781 54" fill="none" xmlns="http://www.w3.org/2000/svg">
<path d="M49.3613 47.1504H0.611328V41.0273H49.3613V47.1504ZM28.5605 42.4922H21.207V29.0449H28.5605V42.4922ZM43.9414 30.1289H5.76758V4.02539H43.9414V30.1289ZM13.1504 24.2695H36.5879V9.97266H13.1504V24.2695ZM101.188 32.3848H52.4668V26.4082H101.188V32.3848ZM95.8555 22.043H58.3555V16.0664H95.8555V22.043ZM95.3281 7.95117H65.7969V18.2637H58.3555V2.00391H95.3281V7.95117ZM96.1191 52.3945H58.3262V46.3887H96.1191V52.3945ZM65.6797 47.9707H58.3262V36.5156H65.6797V47.9707ZM137.281 14.5723C137.281 18.7715 136.686 22.7754 135.494 26.584C134.322 30.373 132.594 33.7422 130.309 36.6914C128.023 39.6406 125.27 41.8672 122.047 43.3711L117.77 37.4824C120.641 36.1738 123.082 34.3086 125.094 31.8867C127.125 29.4648 128.648 26.7598 129.664 23.7715C130.699 20.7637 131.217 17.6973 131.217 14.5723V8.36133H137.281V14.5723ZM138.834 14.5723C138.834 17.541 139.342 20.4414 140.357 23.2734C141.373 26.1055 142.887 28.6641 144.898 30.9492C146.91 33.2148 149.352 34.9434 152.223 36.1348L148.18 41.9941C144.879 40.5684 142.086 38.4688 139.801 35.6953C137.516 32.9219 135.797 29.7285 134.645 26.1152C133.512 22.4824 132.945 18.6348 132.945 14.5723V8.36133H138.834V14.5723ZM150.025 11.3203H119.908V5.22656H150.025V11.3203ZM162.828 53.3906H155.24V0.0117188H162.828V53.3906ZM212.105 53.3906H204.723V0.0117188H212.105V53.3906ZM220.016 27.082H210.465V20.959H220.016V27.082ZM201.09 14.0156H169.771V8.00977H201.09V14.0156ZM185.562 16.9746C188.16 16.9746 190.494 17.5215 192.564 18.6152C194.635 19.6895 196.256 21.1934 197.428 23.127C198.619 25.0605 199.215 27.248 199.215 29.6895C199.215 32.1309 198.619 34.3184 197.428 36.252C196.256 38.1855 194.635 39.6992 192.564 40.793C190.494 41.8672 188.16 42.4043 185.562 42.4043C182.965 42.4043 180.631 41.8672 178.561 40.793C176.49 39.6992 174.869 38.1855 173.697 36.252C172.525 34.3184 171.939 32.1309 171.939 29.6895C171.939 27.248 172.525 25.0605 173.697 23.127C174.869 21.1934 176.49 19.6895 178.561 18.6152C180.631 17.5215 182.965 16.9746 185.562 16.9746ZM185.562 23.0684C184.332 23.0684 183.219 23.3418 182.223 23.8887C181.246 24.416 180.475 25.1875 179.908 26.2031C179.361 27.1992 179.088 28.3613 179.088 29.6895C179.088 31.0371 179.361 32.209 179.908 33.2051C180.475 34.2012 181.246 34.9727 182.223 35.5195C183.219 36.0469 184.332 36.3105 185.562 36.3105C186.832 36.3105 187.955 36.0469 188.932 35.5195C189.908 34.9727 190.66 34.2012 191.188 33.2051C191.734 32.209 192.008 31.0371 192.008 29.6895C192.008 28.3613 191.734 27.1992 191.188 26.2031C190.66 25.1875 189.908 24.416 188.932 23.8887C187.955 23.3418 186.832 23.0684 185.562 23.0684ZM189.283 10.2949H181.842V0.861328H189.283V10.2949ZM239.908 7.7168C239.908 11.3301 239.361 14.6895 238.268 17.7949C237.193 20.9004 235.553 23.6055 233.346 25.9102C231.139 28.1953 228.404 29.9043 225.143 31.0371L221.129 25.1777C223.98 24.2012 226.354 22.8242 228.248 21.0469C230.143 19.25 231.539 17.209 232.438 14.9238C233.355 12.6387 233.814 10.2363 233.814 7.7168V2.88281H239.908V7.7168ZM241.314 8.44922C241.314 10.6758 241.754 12.7949 242.633 14.8066C243.531 16.7988 244.889 18.5762 246.705 20.1387C248.541 21.6816 250.816 22.8828 253.531 23.7422L249.547 29.543C246.441 28.4883 243.814 26.9258 241.666 24.8555C239.518 22.7852 237.916 20.3535 236.861 17.5605C235.807 14.748 235.279 11.7109 235.279 8.44922V2.88281H241.314V8.44922ZM264.195 31.6816H256.725V0.0117188H264.195V31.6816ZM271.402 18.7617H262.086V12.5215H271.402V18.7617ZM246.705 32.7656C250.377 32.7656 253.561 33.1758 256.256 33.9961C258.971 34.7969 261.051 35.9688 262.496 37.5117C263.961 39.0547 264.693 40.9004 264.693 43.0488C264.693 45.2168 263.961 47.0723 262.496 48.6152C261.051 50.1777 258.98 51.3594 256.285 52.1602C253.59 52.9805 250.396 53.3906 246.705 53.3906C242.994 53.3906 239.762 52.9805 237.008 52.1602C234.254 51.3594 232.135 50.1777 230.65 48.6152C229.166 47.0723 228.424 45.2168 228.424 43.0488C228.424 40.9004 229.166 39.0547 230.65 37.5117C232.135 35.9688 234.254 34.7969 237.008 33.9961C239.762 33.1758 242.994 32.7656 246.705 32.7656ZM246.705 38.625C244.4 38.625 242.438 38.791 240.816 39.123C239.215 39.4355 238.004 39.9336 237.184 40.6172C236.363 41.2812 235.953 42.0918 235.953 43.0488C235.953 44.0449 236.363 44.875 237.184 45.5391C238.004 46.2031 239.205 46.7012 240.787 47.0332C242.389 47.3457 244.361 47.5117 246.705 47.5312C249.068 47.5117 251.031 47.3457 252.594 47.0332C254.156 46.7012 255.338 46.2031 256.139 45.5391C256.939 44.875 257.34 44.0449 257.34 43.0488C257.34 42.0723 256.93 41.252 256.109 40.5879C255.309 39.9238 254.117 39.4355 252.535 39.123C250.953 38.791 249.01 38.625 246.705 38.625ZM315.816 53.3027H308.316V0.0117188H315.816V53.3027ZM323.346 26.6719H313.883V20.5195H323.346V26.6719ZM301.578 5.51953C301.578 11.0859 300.787 16.2227 299.205 20.9297C297.623 25.6172 295.045 29.9336 291.471 33.8789C287.896 37.8047 283.209 41.2031 277.408 44.0742L273.189 38.3613C277.975 35.9395 281.91 33.2051 284.996 30.1582C288.102 27.1113 290.416 23.6738 291.939 19.8457C293.482 16.0176 294.254 11.6914 294.254 6.86719V5.51953H301.578ZM298.004 11.6426H276.178V5.51953H298.004V11.6426ZM342.887 3.61523C345.68 3.61523 348.199 4.18164 350.445 5.31445C352.691 6.42773 354.449 7.98047 355.719 9.97266C357.008 11.9453 357.652 14.1914 357.652 16.7109C357.652 19.2305 357.008 21.4863 355.719 23.4785C354.449 25.4512 352.691 27.0039 350.445 28.1367C348.219 29.25 345.699 29.8066 342.887 29.8066C340.113 29.8066 337.594 29.25 335.328 28.1367C333.062 27.0039 331.285 25.4512 329.996 23.4785C328.707 21.4863 328.062 19.2305 328.062 16.7109C328.062 14.1914 328.707 11.9453 329.996 9.97266C331.285 7.98047 333.062 6.42773 335.328 5.31445C337.594 4.18164 340.113 3.61523 342.887 3.61523ZM342.887 10.0605C341.461 10.0605 340.191 10.3242 339.078 10.8516C337.965 11.3789 337.086 12.1504 336.441 13.166C335.797 14.1621 335.475 15.3437 335.475 16.7109C335.475 18.0977 335.797 19.2891 336.441 20.2852C337.086 21.2617 337.965 22.0234 339.078 22.5703C340.191 23.0977 341.461 23.3613 342.887 23.3613C344.312 23.3613 345.592 23.0977 346.725 22.5703C347.877 22.0234 348.766 21.2617 349.391 20.2852C350.035 19.2891 350.357 18.0977 350.357 16.7109C350.357 15.3437 350.035 14.1621 349.391 13.166C348.766 12.1504 347.877 11.3789 346.725 10.8516C345.592 10.3242 344.312 10.0605 342.887 10.0605ZM370.396 53.5371H362.984V0.0117188H370.396V53.5371ZM325.836 36.5449C330.133 36.5254 334.039 36.4766 337.555 36.3984C341.07 36.3203 344.801 36.1641 348.746 35.9297C352.711 35.6758 356.451 35.3145 359.967 34.8457L360.494 40.207C356.881 40.9102 353.111 41.4375 349.186 41.7891C345.26 42.1406 341.568 42.3652 338.111 42.4629C334.674 42.5605 330.875 42.6094 326.715 42.6094L325.836 36.5449ZM435.963 26.9062H428.492V0.0117188H435.963V26.9062ZM419.791 2.00391C419.791 6.86719 418.883 11.0273 417.066 14.4844C415.25 17.9219 412.496 20.7539 408.805 22.9805C405.113 25.1875 400.416 26.8574 394.713 27.9902L392.105 21.9844C396.754 21.125 400.523 19.9336 403.414 18.4102C406.305 16.8867 408.395 15.1191 409.684 13.1074C410.992 11.0957 411.646 8.84961 411.646 6.36914V2.00391H419.791ZM416.803 8.00977H394.977V2.00391H416.803V8.00977ZM435.963 43.4297H407.867V49.4062H400.338V38.0098H428.463V34.7871H400.221V29.0156H435.963V43.4297ZM437.428 52.8633H400.338V47.0918H437.428V52.8633ZM467.516 0.832031C471.617 0.832031 475.113 1.18359 478.004 1.88672C480.895 2.57031 483.092 3.5957 484.596 4.96289C486.119 6.31055 486.881 7.95117 486.881 9.88477C486.881 11.8379 486.119 13.5078 484.596 14.8945C483.092 16.2617 480.895 17.2969 478.004 18C475.113 18.7031 471.617 19.0547 467.516 19.0547C463.414 19.0547 459.908 18.7031 456.998 18C454.107 17.2969 451.891 16.2617 450.348 14.8945C448.824 13.5078 448.062 11.8379 448.062 9.88477C448.062 7.95117 448.824 6.31055 450.348 4.96289C451.891 3.5957 454.107 2.57031 456.998 1.88672C459.908 1.18359 463.414 0.832031 467.516 0.832031ZM467.516 6.28125C464.918 6.28125 462.76 6.41797 461.041 6.69141C459.322 6.94531 458.033 7.3457 457.174 7.89258C456.334 8.43945 455.914 9.10352 455.914 9.88477C455.914 10.7637 456.324 11.4766 457.145 12.0234C457.984 12.5508 459.244 12.9414 460.924 13.1953C462.604 13.4492 464.801 13.5762 467.516 13.5762C470.27 13.5762 472.486 13.4492 474.166 13.1953C475.846 12.9414 477.096 12.5508 477.916 12.0234C478.756 11.4766 479.176 10.7637 479.176 9.88477C479.176 9.10352 478.746 8.44922 477.887 7.92188C477.047 7.375 475.768 6.96484 474.049 6.69141C472.33 6.41797 470.152 6.28125 467.516 6.28125ZM491.861 27.5215H443.229V21.6035H491.861V27.5215ZM485.914 44.1914H456.207V48.9961H448.854V38.9766H478.531V36.0469H448.824V30.5684H485.914V44.1914ZM487.32 53.0098H448.854V47.4141H487.32V53.0098ZM557.604 33.4102H508.854V27.5508H557.604V33.4102ZM536.92 29.7188H529.42V21.6914H536.92V29.7188ZM552.33 24.2695H514.947V18.5273H552.33V24.2695ZM551.92 7.13086H522.418V21.75H514.947V1.35938H551.92V7.13086ZM550.631 15.5098H520.279V10.0898H550.631V15.5098ZM533.199 35.8418C537.125 35.8027 540.465 36.1348 543.219 36.8379C545.992 37.5215 548.111 38.5273 549.576 39.8555C551.041 41.1641 551.773 42.7461 551.773 44.6016C551.773 46.4961 551.041 48.0977 549.576 49.4062C548.111 50.7344 546.002 51.7305 543.248 52.3945C540.494 53.0586 537.145 53.3906 533.199 53.3906C529.234 53.3906 525.855 53.0586 523.062 52.3945C520.27 51.7305 518.141 50.7344 516.676 49.4062C515.23 48.0977 514.508 46.4961 514.508 44.6016C514.508 42.7266 515.24 41.1348 516.705 39.8262C518.17 38.5176 520.299 37.5215 523.092 36.8379C525.885 36.1348 529.254 35.8027 533.199 35.8418ZM533.199 41.3789C530.582 41.3789 528.463 41.4961 526.842 41.7305C525.221 41.9453 524.01 42.2871 523.209 42.7559C522.408 43.2246 522.008 43.8398 522.008 44.6016C522.008 45.3438 522.398 45.959 523.18 46.4473C523.98 46.9355 525.211 47.2969 526.871 47.5312C528.531 47.7461 530.641 47.8535 533.199 47.8535C535.719 47.8535 537.789 47.7461 539.41 47.5312C541.031 47.2969 542.242 46.9355 543.043 46.4473C543.844 45.959 544.244 45.3438 544.244 44.6016C544.244 43.8398 543.844 43.2246 543.043 42.7559C542.262 42.2871 541.061 41.9453 539.439 41.7305C537.818 41.4961 535.738 41.3789 533.199 41.3789ZM602.867 53.3906H595.484V0.0117188H602.867V53.3906ZM610.777 27.082H601.227V20.959H610.777V27.082ZM591.852 14.0156H560.533V8.00977H591.852V14.0156ZM576.324 16.9746C578.922 16.9746 581.256 17.5215 583.326 18.6152C585.396 19.6895 587.018 21.1934 588.189 23.127C589.381 25.0605 589.977 27.248 589.977 29.6895C589.977 32.1309 589.381 34.3184 588.189 36.252C587.018 38.1855 585.396 39.6992 583.326 40.793C581.256 41.8672 578.922 42.4043 576.324 42.4043C573.727 42.4043 571.393 41.8672 569.322 40.793C567.252 39.6992 565.631 38.1855 564.459 36.252C563.287 34.3184 562.701 32.1309 562.701 29.6895C562.701 27.248 563.287 25.0605 564.459 23.127C565.631 21.1934 567.252 19.6895 569.322 18.6152C571.393 17.5215 573.727 16.9746 576.324 16.9746ZM576.324 23.0684C575.094 23.0684 573.98 23.3418 572.984 23.8887C572.008 24.416 571.236 25.1875 570.67 26.2031C570.123 27.1992 569.85 28.3613 569.85 29.6895C569.85 31.0371 570.123 32.209 570.67 33.2051C571.236 34.2012 572.008 34.9727 572.984 35.5195C573.98 36.0469 575.094 36.3105 576.324 36.3105C577.594 36.3105 578.717 36.0469 579.693 35.5195C580.67 34.9727 581.422 34.2012 581.949 33.2051C582.496 32.209 582.77 31.0371 582.77 29.6895C582.77 28.3613 582.496 27.1992 581.949 26.2031C581.422 25.1875 580.67 24.416 579.693 23.8887C578.717 23.3418 577.594 23.0684 576.324 23.0684ZM580.045 10.2949H572.604V0.861328H580.045V10.2949ZM658.854 53.3906H651.822V0.0117188H658.854V53.3906ZM641.92 26.5547H630.26V20.6074H641.92V26.5547ZM647.516 51.0469H640.484V1.27148H647.516V51.0469ZM635.973 6.39844C635.973 11.6914 635.348 16.4961 634.098 20.8125C632.867 25.1094 630.797 29.0645 627.887 32.6777C624.977 36.291 621.09 39.4941 616.227 42.2871L612.008 37.043C616.07 34.6406 619.322 32.0137 621.764 29.1621C624.205 26.291 625.973 23.127 627.066 19.6699C628.18 16.2129 628.736 12.2969 628.736 7.92188V6.39844H635.973ZM631.139 12.4043H614.938V6.39844H631.139V12.4043ZM720.465 53.3906H713.082V0.0117188H720.465V53.3906ZM728.375 27.082H718.824V20.959H728.375V27.082ZM709.449 14.0156H678.131V8.00977H709.449V14.0156ZM693.922 16.9746C696.52 16.9746 698.854 17.5215 700.924 18.6152C702.994 19.6895 704.615 21.1934 705.787 23.127C706.979 25.0605 707.574 27.248 707.574 29.6895C707.574 32.1309 706.979 34.3184 705.787 36.252C704.615 38.1855 702.994 39.6992 700.924 40.793C698.854 41.8672 696.52 42.4043 693.922 42.4043C691.324 42.4043 688.99 41.8672 686.92 40.793C684.85 39.6992 683.229 38.1855 682.057 36.252C680.885 34.3184 680.299 32.1309 680.299 29.6895C680.299 27.248 680.885 25.0605 682.057 23.127C683.229 21.1934 684.85 19.6895 686.92 18.6152C688.99 17.5215 691.324 16.9746 693.922 16.9746ZM693.922 23.0684C692.691 23.0684 691.578 23.3418 690.582 23.8887C689.605 24.416 688.834 25.1875 688.268 26.2031C687.721 27.1992 687.447 28.3613 687.447 29.6895C687.447 31.0371 687.721 32.209 688.268 33.2051C688.834 34.2012 689.605 34.9727 690.582 35.5195C691.578 36.0469 692.691 36.3105 693.922 36.3105C695.191 36.3105 696.314 36.0469 697.291 35.5195C698.268 34.9727 699.02 34.2012 699.547 33.2051C700.094 32.209 700.367 31.0371 700.367 29.6895C700.367 28.3613 700.094 27.1992 699.547 26.2031C699.02 25.1875 698.268 24.416 697.291 23.8887C696.314 23.3418 695.191 23.0684 693.922 23.0684ZM697.643 10.2949H690.201V0.861328H697.643V10.2949ZM772.32 53.5371H764.82V0.0117188H772.32V53.5371ZM780.23 25.9688H770.68V19.8457H780.23V25.9688ZM736.871 34.4062C741.715 34.4258 746.002 34.3086 749.732 34.0547C753.463 33.8008 757.213 33.3516 760.982 32.707L761.803 38.9766C757.975 39.6211 754.166 40.0508 750.377 40.2656C746.588 40.4805 742.086 40.5781 736.871 40.5586H732.359V34.4062H736.871ZM757.379 11.0566H739.83V37.4531H732.359V4.99219H757.379V11.0566Z" fill="black"/>
<path d="M49.3613 47.1504H0.611328V41.0273H49.3613V47.1504ZM28.5605 42.4922H21.207V29.0449H28.5605V42.4922ZM43.9414 30.1289H5.76758V4.02539H43.9414V30.1289ZM13.1504 24.2695H36.5879V9.97266H13.1504V24.2695ZM101.188 32.3848H52.4668V26.4082H101.188V32.3848ZM95.8555 22.043H58.3555V16.0664H95.8555V22.043ZM95.3281 7.95117H65.7969V18.2637H58.3555V2.00391H95.3281V7.95117ZM96.1191 52.3945H58.3262V46.3887H96.1191V52.3945ZM65.6797 47.9707H58.3262V36.5156H65.6797V47.9707ZM137.281 14.5723C137.281 18.7715 136.686 22.7754 135.494 26.584C134.322 30.373 132.594 33.7422 130.309 36.6914C128.023 39.6406 125.27 41.8672 122.047 43.3711L117.77 37.4824C120.641 36.1738 123.082 34.3086 125.094 31.8867C127.125 29.4648 128.648 26.7598 129.664 23.7715C130.699 20.7637 131.217 17.6973 131.217 14.5723V8.36133H137.281V14.5723ZM138.834 14.5723C138.834 17.541 139.342 20.4414 140.357 23.2734C141.373 26.1055 142.887 28.6641 144.898 30.9492C146.91 33.2148 149.352 34.9434 152.223 36.1348L148.18 41.9941C144.879 40.5684 142.086 38.4688 139.801 35.6953C137.516 32.9219 135.797 29.7285 134.645 26.1152C133.512 22.4824 132.945 18.6348 132.945 14.5723V8.36133H138.834V14.5723ZM150.025 11.3203H119.908V5.22656H150.025V11.3203ZM162.828 53.3906H155.24V0.0117188H162.828V53.3906ZM212.105 53.3906H204.723V0.0117188H212.105V53.3906ZM220.016 27.082H210.465V20.959H220.016V27.082ZM201.09 14.0156H169.771V8.00977H201.09V14.0156ZM185.562 16.9746C188.16 16.9746 190.494 17.5215 192.564 18.6152C194.635 19.6895 196.256 21.1934 197.428 23.127C198.619 25.0605 199.215 27.248 199.215 29.6895C199.215 32.1309 198.619 34.3184 197.428 36.252C196.256 38.1855 194.635 39.6992 192.564 40.793C190.494 41.8672 188.16 42.4043 185.562 42.4043C182.965 42.4043 180.631 41.8672 178.561 40.793C176.49 39.6992 174.869 38.1855 173.697 36.252C172.525 34.3184 171.939 32.1309 171.939 29.6895C171.939 27.248 172.525 25.0605 173.697 23.127C174.869 21.1934 176.49 19.6895 178.561 18.6152C180.631 17.5215 182.965 16.9746 185.562 16.9746ZM185.562 23.0684C184.332 23.0684 183.219 23.3418 182.223 23.8887C181.246 24.416 180.475 25.1875 179.908 26.2031C179.361 27.1992 179.088 28.3613 179.088 29.6895C179.088 31.0371 179.361 32.209 179.908 33.2051C180.475 34.2012 181.246 34.9727 182.223 35.5195C183.219 36.0469 184.332 36.3105 185.562 36.3105C186.832 36.3105 187.955 36.0469 188.932 35.5195C189.908 34.9727 190.66 34.2012 191.188 33.2051C191.734 32.209 192.008 31.0371 192.008 29.6895C192.008 28.3613 191.734 27.1992 191.188 26.2031C190.66 25.1875 189.908 24.416 188.932 23.8887C187.955 23.3418 186.832 23.0684 185.562 23.0684ZM189.283 10.2949H181.842V0.861328H189.283V10.2949ZM239.908 7.7168C239.908 11.3301 239.361 14.6895 238.268 17.7949C237.193 20.9004 235.553 23.6055 233.346 25.9102C231.139 28.1953 228.404 29.9043 225.143 31.0371L221.129 25.1777C223.98 24.2012 226.354 22.8242 228.248 21.0469C230.143 19.25 231.539 17.209 232.438 14.9238C233.355 12.6387 233.814 10.2363 233.814 7.7168V2.88281H239.908V7.7168ZM241.314 8.44922C241.314 10.6758 241.754 12.7949 242.633 14.8066C243.531 16.7988 244.889 18.5762 246.705 20.1387C248.541 21.6816 250.816 22.8828 253.531 23.7422L249.547 29.543C246.441 28.4883 243.814 26.9258 241.666 24.8555C239.518 22.7852 237.916 20.3535 236.861 17.5605C235.807 14.748 235.279 11.7109 235.279 8.44922V2.88281H241.314V8.44922ZM264.195 31.6816H256.725V0.0117188H264.195V31.6816ZM271.402 18.7617H262.086V12.5215H271.402V18.7617ZM246.705 32.7656C250.377 32.7656 253.561 33.1758 256.256 33.9961C258.971 34.7969 261.051 35.9688 262.496 37.5117C263.961 39.0547 264.693 40.9004 264.693 43.0488C264.693 45.2168 263.961 47.0723 262.496 48.6152C261.051 50.1777 258.98 51.3594 256.285 52.1602C253.59 52.9805 250.396 53.3906 246.705 53.3906C242.994 53.3906 239.762 52.9805 237.008 52.1602C234.254 51.3594 232.135 50.1777 230.65 48.6152C229.166 47.0723 228.424 45.2168 228.424 43.0488C228.424 40.9004 229.166 39.0547 230.65 37.5117C232.135 35.9688 234.254 34.7969 237.008 33.9961C239.762 33.1758 242.994 32.7656 246.705 32.7656ZM246.705 38.625C244.4 38.625 242.438 38.791 240.816 39.123C239.215 39.4355 238.004 39.9336 237.184 40.6172C236.363 41.2812 235.953 42.0918 235.953 43.0488C235.953 44.0449 236.363 44.875 237.184 45.5391C238.004 46.2031 239.205 46.7012 240.787 47.0332C242.389 47.3457 244.361 47.5117 246.705 47.5312C249.068 47.5117 251.031 47.3457 252.594 47.0332C254.156 46.7012 255.338 46.2031 256.139 45.5391C256.939 44.875 257.34 44.0449 257.34 43.0488C257.34 42.0723 256.93 41.252 256.109 40.5879C255.309 39.9238 254.117 39.4355 252.535 39.123C250.953 38.791 249.01 38.625 246.705 38.625ZM315.816 53.3027H308.316V0.0117188H315.816V53.3027ZM323.346 26.6719H313.883V20.5195H323.346V26.6719ZM301.578 5.51953C301.578 11.0859 300.787 16.2227 299.205 20.9297C297.623 25.6172 295.045 29.9336 291.471 33.8789C287.896 37.8047 283.209 41.2031 277.408 44.0742L273.189 38.3613C277.975 35.9395 281.91 33.2051 284.996 30.1582C288.102 27.1113 290.416 23.6738 291.939 19.8457C293.482 16.0176 294.254 11.6914 294.254 6.86719V5.51953H301.578ZM298.004 11.6426H276.178V5.51953H298.004V11.6426ZM342.887 3.61523C345.68 3.61523 348.199 4.18164 350.445 5.31445C352.691 6.42773 354.449 7.98047 355.719 9.97266C357.008 11.9453 357.652 14.1914 357.652 16.7109C357.652 19.2305 357.008 21.4863 355.719 23.4785C354.449 25.4512 352.691 27.0039 350.445 28.1367C348.219 29.25 345.699 29.8066 342.887 29.8066C340.113 29.8066 337.594 29.25 335.328 28.1367C333.062 27.0039 331.285 25.4512 329.996 23.4785C328.707 21.4863 328.062 19.2305 328.062 16.7109C328.062 14.1914 328.707 11.9453 329.996 9.97266C331.285 7.98047 333.062 6.42773 335.328 5.31445C337.594 4.18164 340.113 3.61523 342.887 3.61523ZM342.887 10.0605C341.461 10.0605 340.191 10.3242 339.078 10.8516C337.965 11.3789 337.086 12.1504 336.441 13.166C335.797 14.1621 335.475 15.3437 335.475 16.7109C335.475 18.0977 335.797 19.2891 336.441 20.2852C337.086 21.2617 337.965 22.0234 339.078 22.5703C340.191 23.0977 341.461 23.3613 342.887 23.3613C344.312 23.3613 345.592 23.0977 346.725 22.5703C347.877 22.0234 348.766 21.2617 349.391 20.2852C350.035 19.2891 350.357 18.0977 350.357 16.7109C350.357 15.3437 350.035 14.1621 349.391 13.166C348.766 12.1504 347.877 11.3789 346.725 10.8516C345.592 10.3242 344.312 10.0605 342.887 10.0605ZM370.396 53.5371H362.984V0.0117188H370.396V53.5371ZM325.836 36.5449C330.133 36.5254 334.039 36.4766 337.555 36.3984C341.07 36.3203 344.801 36.1641 348.746 35.9297C352.711 35.6758 356.451 35.3145 359.967 34.8457L360.494 40.207C356.881 40.9102 353.111 41.4375 349.186 41.7891C345.26 42.1406 341.568 42.3652 338.111 42.4629C334.674 42.5605 330.875 42.6094 326.715 42.6094L325.836 36.5449ZM435.963 26.9062H428.492V0.0117188H435.963V26.9062ZM419.791 2.00391C419.791 6.86719 418.883 11.0273 417.066 14.4844C415.25 17.9219 412.496 20.7539 408.805 22.9805C405.113 25.1875 400.416 26.8574 394.713 27.9902L392.105 21.9844C396.754 21.125 400.523 19.9336 403.414 18.4102C406.305 16.8867 408.395 15.1191 409.684 13.1074C410.992 11.0957 411.646 8.84961 411.646 6.36914V2.00391H419.791ZM416.803 8.00977H394.977V2.00391H416.803V8.00977ZM435.963 43.4297H407.867V49.4062H400.338V38.0098H428.463V34.7871H400.221V29.0156H435.963V43.4297ZM437.428 52.8633H400.338V47.0918H437.428V52.8633ZM467.516 0.832031C471.617 0.832031 475.113 1.18359 478.004 1.88672C480.895 2.57031 483.092 3.5957 484.596 4.96289C486.119 6.31055 486.881 7.95117 486.881 9.88477C486.881 11.8379 486.119 13.5078 484.596 14.8945C483.092 16.2617 480.895 17.2969 478.004 18C475.113 18.7031 471.617 19.0547 467.516 19.0547C463.414 19.0547 459.908 18.7031 456.998 18C454.107 17.2969 451.891 16.2617 450.348 14.8945C448.824 13.5078 448.062 11.8379 448.062 9.88477C448.062 7.95117 448.824 6.31055 450.348 4.96289C451.891 3.5957 454.107 2.57031 456.998 1.88672C459.908 1.18359 463.414 0.832031 467.516 0.832031ZM467.516 6.28125C464.918 6.28125 462.76 6.41797 461.041 6.69141C459.322 6.94531 458.033 7.3457 457.174 7.89258C456.334 8.43945 455.914 9.10352 455.914 9.88477C455.914 10.7637 456.324 11.4766 457.145 12.0234C457.984 12.5508 459.244 12.9414 460.924 13.1953C462.604 13.4492 464.801 13.5762 467.516 13.5762C470.27 13.5762 472.486 13.4492 474.166 13.1953C475.846 12.9414 477.096 12.5508 477.916 12.0234C478.756 11.4766 479.176 10.7637 479.176 9.88477C479.176 9.10352 478.746 8.44922 477.887 7.92188C477.047 7.375 475.768 6.96484 474.049 6.69141C472.33 6.41797 470.152 6.28125 467.516 6.28125ZM491.861 27.5215H443.229V21.6035H491.861V27.5215ZM485.914 44.1914H456.207V48.9961H448.854V38.9766H478.531V36.0469H448.824V30.5684H485.914V44.1914ZM487.32 53.0098H448.854V47.4141H487.32V53.0098ZM557.604 33.4102H508.854V27.5508H557.604V33.4102ZM536.92 29.7188H529.42V21.6914H536.92V29.7188ZM552.33 24.2695H514.947V18.5273H552.33V24.2695ZM551.92 7.13086H522.418V21.75H514.947V1.35938H551.92V7.13086ZM550.631 15.5098H520.279V10.0898H550.631V15.5098ZM533.199 35.8418C537.125 35.8027 540.465 36.1348 543.219 36.8379C545.992 37.5215 548.111 38.5273 549.576 39.8555C551.041 41.1641 551.773 42.7461 551.773 44.6016C551.773 46.4961 551.041 48.0977 549.576 49.4062C548.111 50.7344 546.002 51.7305 543.248 52.3945C540.494 53.0586 537.145 53.3906 533.199 53.3906C529.234 53.3906 525.855 53.0586 523.062 52.3945C520.27 51.7305 518.141 50.7344 516.676 49.4062C515.23 48.0977 514.508 46.4961 514.508 44.6016C514.508 42.7266 515.24 41.1348 516.705 39.8262C518.17 38.5176 520.299 37.5215 523.092 36.8379C525.885 36.1348 529.254 35.8027 533.199 35.8418ZM533.199 41.3789C530.582 41.3789 528.463 41.4961 526.842 41.7305C525.221 41.9453 524.01 42.2871 523.209 42.7559C522.408 43.2246 522.008 43.8398 522.008 44.6016C522.008 45.3438 522.398 45.959 523.18 46.4473C523.98 46.9355 525.211 47.2969 526.871 47.5312C528.531 47.7461 530.641 47.8535 533.199 47.8535C535.719 47.8535 537.789 47.7461 539.41 47.5312C541.031 47.2969 542.242 46.9355 543.043 46.4473C543.844 45.959 544.244 45.3438 544.244 44.6016C544.244 43.8398 543.844 43.2246 543.043 42.7559C542.262 42.2871 541.061 41.9453 539.439 41.7305C537.818 41.4961 535.738 41.3789 533.199 41.3789ZM602.867 53.3906H595.484V0.0117188H602.867V53.3906ZM610.777 27.082H601.227V20.959H610.777V27.082ZM591.852 14.0156H560.533V8.00977H591.852V14.0156ZM576.324 16.9746C578.922 16.9746 581.256 17.5215 583.326 18.6152C585.396 19.6895 587.018 21.1934 588.189 23.127C589.381 25.0605 589.977 27.248 589.977 29.6895C589.977 32.1309 589.381 34.3184 588.189 36.252C587.018 38.1855 585.396 39.6992 583.326 40.793C581.256 41.8672 578.922 42.4043 576.324 42.4043C573.727 42.4043 571.393 41.8672 569.322 40.793C567.252 39.6992 565.631 38.1855 564.459 36.252C563.287 34.3184 562.701 32.1309 562.701 29.6895C562.701 27.248 563.287 25.0605 564.459 23.127C565.631 21.1934 567.252 19.6895 569.322 18.6152C571.393 17.5215 573.727 16.9746 576.324 16.9746ZM576.324 23.0684C575.094 23.0684 573.98 23.3418 572.984 23.8887C572.008 24.416 571.236 25.1875 570.67 26.2031C570.123 27.1992 569.85 28.3613 569.85 29.6895C569.85 31.0371 570.123 32.209 570.67 33.2051C571.236 34.2012 572.008 34.9727 572.984 35.5195C573.98 36.0469 575.094 36.3105 576.324 36.3105C577.594 36.3105 578.717 36.0469 579.693 35.5195C580.67 34.9727 581.422 34.2012 581.949 33.2051C582.496 32.209 582.77 31.0371 582.77 29.6895C582.77 28.3613 582.496 27.1992 581.949 26.2031C581.422 25.1875 580.67 24.416 579.693 23.8887C578.717 23.3418 577.594 23.0684 576.324 23.0684ZM580.045 10.2949H572.604V0.861328H580.045V10.2949ZM658.854 53.3906H651.822V0.0117188H658.854V53.3906ZM641.92 26.5547H630.26V20.6074H641.92V26.5547ZM647.516 51.0469H640.484V1.27148H647.516V51.0469ZM635.973 6.39844C635.973 11.6914 635.348 16.4961 634.098 20.8125C632.867 25.1094 630.797 29.0645 627.887 32.6777C624.977 36.291 621.09 39.4941 616.227 42.2871L612.008 37.043C616.07 34.6406 619.322 32.0137 621.764 29.1621C624.205 26.291 625.973 23.127 627.066 19.6699C628.18 16.2129 628.736 12.2969 628.736 7.92188V6.39844H635.973ZM631.139 12.4043H614.938V6.39844H631.139V12.4043ZM720.465 53.3906H713.082V0.0117188H720.465V53.3906ZM728.375 27.082H718.824V20.959H728.375V27.082ZM709.449 14.0156H678.131V8.00977H709.449V14.0156ZM693.922 16.9746C696.52 16.9746 698.854 17.5215 700.924 18.6152C702.994 19.6895 704.615 21.1934 705.787 23.127C706.979 25.0605 707.574 27.248 707.574 29.6895C707.574 32.1309 706.979 34.3184 705.787 36.252C704.615 38.1855 702.994 39.6992 700.924 40.793C698.854 41.8672 696.52 42.4043 693.922 42.4043C691.324 42.4043 688.99 41.8672 686.92 40.793C684.85 39.6992 683.229 38.1855 682.057 36.252C680.885 34.3184 680.299 32.1309 680.299 29.6895C680.299 27.248 680.885 25.0605 682.057 23.127C683.229 21.1934 684.85 19.6895 686.92 18.6152C688.99 17.5215 691.324 16.9746 693.922 16.9746ZM693.922 23.0684C692.691 23.0684 691.578 23.3418 690.582 23.8887C689.605 24.416 688.834 25.1875 688.268 26.2031C687.721 27.1992 687.447 28.3613 687.447 29.6895C687.447 31.0371 687.721 32.209 688.268 33.2051C688.834 34.2012 689.605 34.9727 690.582 35.5195C691.578 36.0469 692.691 36.3105 693.922 36.3105C695.191 36.3105 696.314 36.0469 697.291 35.5195C698.268 34.9727 699.02 34.2012 699.547 33.2051C700.094 32.209 700.367 31.0371 700.367 29.6895C700.367 28.3613 700.094 27.1992 699.547 26.2031C699.02 25.1875 698.268 24.416 697.291 23.8887C696.314 23.3418 695.191 23.0684 693.922 23.0684ZM697.643 10.2949H690.201V0.861328H697.643V10.2949ZM772.32 53.5371H764.82V0.0117188H772.32V53.5371ZM780.23 25.9688H770.68V19.8457H780.23V25.9688ZM736.871 34.4062C741.715 34.4258 746.002 34.3086 749.732 34.0547C753.463 33.8008 757.213 33.3516 760.982 32.707L761.803 38.9766C757.975 39.6211 754.166 40.0508 750.377 40.2656C746.588 40.4805 742.086 40.5781 736.871 40.5586H732.359V34.4062H736.871ZM757.379 11.0566H739.83V37.4531H732.359V4.99219H757.379V11.0566Z" fill="url(#paint0_linear_292_87)"/>
<defs>
<linearGradient id="paint0_linear_292_87" x1="-10.8669" y1="4.11967" x2="734.863" y2="235.395" gradientUnits="userSpaceOnUse">
<stop stop-color="#790699"/>
<stop offset="0.173077" stop-color="#320699"/>
<stop offset="0.620192" stop-color="#3D64AC"/>
<stop offset="0.969649" stop-color="#28BFB2"/>
</linearGradient>
</defs>
</svg>
